<?xml version="1.0" encoding="utf-8"?>
<!-- Generator: Adobe Illustrator 24.0.3, SVG Export Plug-In . SVG Version: 6.00 Build 0)  -->
<!DOCTYPE svg PUBLIC "-//W3C//DTD SVG 1.1//EN" "http://www.w3.org/Graphics/SVG/1.1/DTD/svg11.dtd" [
	<!ENTITY ns_extend "http://ns.adobe.com/Extensibility/1.0/">
	<!ENTITY ns_ai "http://ns.adobe.com/AdobeIllustrator/10.0/">
	<!ENTITY ns_graphs "http://ns.adobe.com/Graphs/1.0/">
	<!ENTITY ns_vars "http://ns.adobe.com/Variables/1.0/">
	<!ENTITY ns_imrep "http://ns.adobe.com/ImageReplacement/1.0/">
	<!ENTITY ns_sfw "http://ns.adobe.com/SaveForWeb/1.0/">
	<!ENTITY ns_custom "http://ns.adobe.com/GenericCustomNamespace/1.0/">
	<!ENTITY ns_adobe_xpath "http://ns.adobe.com/XPath/1.0/">
]>
<svg version="1.1" id="Layer_1" xmlns:x="&ns_extend;" xmlns:i="&ns_ai;" xmlns:graph="&ns_graphs;"
	 xmlns="http://www.w3.org/2000/svg" xmlns:xlink="http://www.w3.org/1999/xlink" x="0px" y="0px" viewBox="0 0 49 48.6"
	 style="enable-background:new 0 0 49 48.6;" xml:space="preserve">
<metadata>
	<sfw  xmlns="&ns_sfw;">
		<slices></slices>
		<sliceSourceBounds  bottomLeftOrigin="true" height="48.1" width="47.9" x="0.6" y="12.7"></sliceSourceBounds>
	</sfw>
</metadata>
<path d="M48.2,9.6l-3.3-3.1c-0.2-0.2-0.4-0.3-0.7-0.3h-16V1.5c0-0.6-0.4-1-1-1h-5.3c-0.6,0-1,0.4-1,1v4.8h-3.4c-0.6,0-1,0.4-1,1V14
	c0,0.6,0.4,1,1,1h3.4v4.9h-16c-0.3,0-0.5,0.1-0.7,0.3l-3.3,3.6c-0.2,0.2-0.3,0.5-0.3,0.7c0,0.3,0.1,0.5,0.3,0.7l3.3,3.1
	c0.2,0.2,0.4,0.3,0.7,0.3h16v19c0,0.6,0.4,1,1,1h5.3c0.6,0,1-0.4,1-1v-19h3.4c0.6,0,1-0.4,1-1v-6.7c0-0.6-0.4-1-1-1h-3.4V15h16
	c0.3,0,0.5-0.1,0.7-0.3l3.3-3.6c0.2-0.2,0.3-0.5,0.3-0.7C48.5,10.1,48.4,9.8,48.2,9.6z M22.8,2.5h3.3v3.8h-3.3V2.5z M26.2,46.5h-3.3
	v-18h3.3V46.5z M30.5,26.5h-3.4h-5.3H5.2l-2.3-2.2l2.4-2.5h16.6h5.3h3.4v4.7H30.5z M26.2,19.9h-3.3V15h3.3V19.9z M43.7,12.9H27.2
	h-5.3h-3.4V8.3h3.4h5.3h16.6l2.3,2.2L43.7,12.9z"/>
</svg>
