<?xml version="1.0" encoding="utf-8"?>
<!-- Generator: Adobe Illustrator 20.1.0, SVG Export Plug-In . SVG Version: 6.00 Build 0)  -->
<!DOCTYPE svg PUBLIC "-//W3C//DTD SVG 1.1//EN" "http://www.w3.org/Graphics/SVG/1.1/DTD/svg11.dtd" [
	<!ENTITY ns_extend "http://ns.adobe.com/Extensibility/1.0/">
	<!ENTITY ns_ai "http://ns.adobe.com/AdobeIllustrator/10.0/">
	<!ENTITY ns_graphs "http://ns.adobe.com/Graphs/1.0/">
	<!ENTITY ns_vars "http://ns.adobe.com/Variables/1.0/">
	<!ENTITY ns_imrep "http://ns.adobe.com/ImageReplacement/1.0/">
	<!ENTITY ns_sfw "http://ns.adobe.com/SaveForWeb/1.0/">
	<!ENTITY ns_custom "http://ns.adobe.com/GenericCustomNamespace/1.0/">
	<!ENTITY ns_adobe_xpath "http://ns.adobe.com/XPath/1.0/">
]>
<svg version="1.1" id="Layer_1" xmlns:x="&ns_extend;" xmlns:i="&ns_ai;" xmlns:graph="&ns_graphs;"
	 xmlns="http://www.w3.org/2000/svg" xmlns:xlink="http://www.w3.org/1999/xlink" x="0px" y="0px" viewBox="0 0 48 48"
	 style="enable-background:new 0 0 48 48;" xml:space="preserve">
<metadata>
	<sfw  xmlns="&ns_sfw;">
		<slices></slices>
		<sliceSourceBounds  bottomLeftOrigin="true" height="48" width="48" x="0" y="0"></sliceSourceBounds>
	</sfw>
</metadata>
<path d="M42.5,21.1c-0.4-0.4-1-0.4-1.4,0l-1.3,1.3L38.9,17l5.8-5.2c1.5-1.4,3.2-3.8,3.3-6.4c0-1.4-0.5-2.7-1.5-3.8
	c-1.1-1.1-2.4-1.7-3.9-1.6c-3,0.1-5.6,2.6-6.3,3.4l-5.2,5.7l-5.4-0.9L27,6.9c0.4-0.4,0.4-1,0-1.4l-3.7-3.7c-0.4-0.4-1-0.4-1.4,0
	L17,6.7l-6.5-1.1c-0.3-0.1-0.6,0.1-0.9,0.3l-4.2,4.2c-0.2,0.2-0.3,0.5-0.3,0.8s0.2,0.6,0.4,0.7L19.4,22l-7.2,7.9l-8.9-1.4
	c-0.3-0.1-0.6,0.1-0.9,0.3l-2.1,2.1C0.1,31.1,0,31.4,0,31.7c0,0.3,0.2,0.6,0.4,0.7l7,5.1c0.1,0.8,0.5,1.5,1.1,2.1s1.3,0.9,2.1,1.1
	l5.2,6.9c0.2,0.2,0.4,0.4,0.7,0.4c0,0,0,0,0.1,0c0.3,0,0.5-0.1,0.7-0.3l2.1-2.1c0.2-0.2,0.3-0.6,0.3-0.9l-1.5-8.8l7.9-7.2l10.4,13.9
	c0.2,0.2,0.4,0.4,0.7,0.4c0,0,0,0,0.1,0c0.3,0,0.5-0.1,0.7-0.3l4.2-4.2c0.2-0.2,0.3-0.6,0.3-0.9l-1.1-6.5l4.9-4.9
	c0.2-0.2,0.3-0.4,0.3-0.7c0-0.3-0.1-0.5-0.3-0.7L42.5,21.1z M22.5,3.9l2.3,2.3l-1.6,1.6l-4-0.7L22.5,3.9z M10.5,7.7l19,3.2l-8.8,9.7
	L7.5,10.8L10.5,7.7z M16,35.7l1.5,8.8l-0.9,1l-4.7-6.3c-0.2-0.2-0.4-0.4-0.7-0.4s-0.8-0.1-1.3-0.6c-0.4-0.4-0.5-0.9-0.6-1.3
	c0-0.3-0.2-0.6-0.4-0.7l-6.3-4.7l0.9-1l8.8,1.5c0.3,0.1,0.7-0.1,0.9-0.3l24.5-27c1.2-1.3,3.1-2.7,4.8-2.8c0.9,0,1.7,0.3,2.4,1
	c0.6,0.6,1,1.4,0.9,2.3c0,1.8-1.4,3.8-2.6,4.9l-6.1,5.6l0,0L25.4,26.6l0,0l-9.1,8.3C16.1,35.1,16,35.4,16,35.7z M37.3,40.6
	l-9.9-13.2l8.7-7.9l1-0.9l3.2,19L37.3,40.6z M40.9,28.8l-0.7-4l1.6-1.6l2.3,2.3L40.9,28.8z"/>
</svg>
