<?xml version="1.0" encoding="utf-8"?>
<!-- Generator: Adobe Illustrator 24.0.3, SVG Export Plug-In . SVG Version: 6.00 Build 0)  -->
<!DOCTYPE svg PUBLIC "-//W3C//DTD SVG 1.1//EN" "http://www.w3.org/Graphics/SVG/1.1/DTD/svg11.dtd" [
	<!ENTITY ns_extend "http://ns.adobe.com/Extensibility/1.0/">
	<!ENTITY ns_ai "http://ns.adobe.com/AdobeIllustrator/10.0/">
	<!ENTITY ns_graphs "http://ns.adobe.com/Graphs/1.0/">
	<!ENTITY ns_vars "http://ns.adobe.com/Variables/1.0/">
	<!ENTITY ns_imrep "http://ns.adobe.com/ImageReplacement/1.0/">
	<!ENTITY ns_sfw "http://ns.adobe.com/SaveForWeb/1.0/">
	<!ENTITY ns_custom "http://ns.adobe.com/GenericCustomNamespace/1.0/">
	<!ENTITY ns_adobe_xpath "http://ns.adobe.com/XPath/1.0/">
]>
<svg version="1.1" id="Layer_1" xmlns:x="&ns_extend;" xmlns:i="&ns_ai;" xmlns:graph="&ns_graphs;"
	 xmlns="http://www.w3.org/2000/svg" xmlns:xlink="http://www.w3.org/1999/xlink" x="0px" y="0px" viewBox="0 0 49 48.6"
	 style="enable-background:new 0 0 49 48.6;" xml:space="preserve">
<metadata>
	<sfw  xmlns="&ns_sfw;">
		<slices></slices>
		<sliceSourceBounds  bottomLeftOrigin="true" height="48.1" width="48" x="0.5" y="12.6"></sliceSourceBounds>
	</sfw>
</metadata>
<g>
	<path d="M29,0.6c-0.3-0.2-0.7-0.2-1,0c-5.2,2.8-8.5,8.2-8.5,14.2v14.6c0,0.6,0.4,1,1,1h1v14.1c0,2.2,1.8,4,4,4s4-1.8,4-4V29.4V1.5
		C29.4,1.1,29.3,0.8,29,0.6z M21.5,14.8c0-4.6,2.3-8.9,6-11.5v25.2h-5h-1V14.8z M27.5,44.5c0,1.1-0.9,2-2,2s-2-0.9-2-2V30.4h4V44.5z
		"/>
	<path d="M41.5,0.5c-3.9,0-7,3.8-7,8.5c0,4.3,2.6,7.8,6,8.4v13.1h-2c-0.6,0-1,0.4-1,1v13.1c0,2.2,1.8,4,4,4s4-1.8,4-4V31.4
		c0-0.6-0.4-1-1-1h-2v-13c3.4-0.6,6-4.1,6-8.4C48.5,4.3,45.3,0.5,41.5,0.5z M43.5,44.5c0,1.1-0.9,2-2,2s-2-0.9-2-2V32.4h4V44.5z
		 M41.5,15.5c-2.8,0-5-2.9-5-6.5s2.2-6.5,5-6.5s5,2.9,5,6.5S44.2,15.5,41.5,15.5z"/>
	<path d="M13.5,0.5c-0.6,0-1,0.4-1,1v10h-4v-10c0-0.6-0.4-1-1-1s-1,0.4-1,1v10h-4v-10c0-0.6-0.4-1-1-1s-1,0.4-1,1v11v0.4v1.6
		c0,3.5,2.6,6.4,6,6.9v9.1h-2c-0.6,0-1,0.4-1,1v13.1c0,2.2,1.8,4,4,4s4-1.8,4-4V31.4c0-0.6-0.4-1-1-1h-2v-9.1c3.4-0.5,6-3.4,6-6.9
		v-1.6v-0.4v-11C14.5,0.9,14.1,0.5,13.5,0.5z M9.5,44.5c0,1.1-0.9,2-2,2s-2-0.9-2-2V32.4h4V44.5z M12.5,14.5c0,2.8-2.2,5-5,5
		s-5-2.2-5-5v-1h10V14.5z"/>
</g>
</svg>
