<?xml version="1.0" encoding="utf-8"?>
<!-- Generator: Adobe Illustrator 24.0.3, SVG Export Plug-In . SVG Version: 6.00 Build 0)  -->
<!DOCTYPE svg PUBLIC "-//W3C//DTD SVG 1.1//EN" "http://www.w3.org/Graphics/SVG/1.1/DTD/svg11.dtd" [
	<!ENTITY ns_extend "http://ns.adobe.com/Extensibility/1.0/">
	<!ENTITY ns_ai "http://ns.adobe.com/AdobeIllustrator/10.0/">
	<!ENTITY ns_graphs "http://ns.adobe.com/Graphs/1.0/">
	<!ENTITY ns_vars "http://ns.adobe.com/Variables/1.0/">
	<!ENTITY ns_imrep "http://ns.adobe.com/ImageReplacement/1.0/">
	<!ENTITY ns_sfw "http://ns.adobe.com/SaveForWeb/1.0/">
	<!ENTITY ns_custom "http://ns.adobe.com/GenericCustomNamespace/1.0/">
	<!ENTITY ns_adobe_xpath "http://ns.adobe.com/XPath/1.0/">
]>
<svg version="1.1" id="Layer_1" xmlns:x="&ns_extend;" xmlns:i="&ns_ai;" xmlns:graph="&ns_graphs;"
	 xmlns="http://www.w3.org/2000/svg" xmlns:xlink="http://www.w3.org/1999/xlink" x="0px" y="0px" viewBox="0 0 49 48.5"
	 style="enable-background:new 0 0 49 48.5;" xml:space="preserve">
<metadata>
	<sfw  xmlns="&ns_sfw;">
		<slices></slices>
		<sliceSourceBounds  bottomLeftOrigin="true" height="48" width="48.1" x="0.5" y="12.8"></sliceSourceBounds>
	</sfw>
</metadata>
<g>
	<path d="M47.5,14.5h-9.6v-8c0-0.4-0.2-0.8-0.6-0.9l-12.4-5c-0.2-0.1-0.5-0.1-0.7,0l-12.4,5c-0.4,0.2-0.6,0.5-0.6,0.9v8H1.5
		c-0.6,0-1,0.4-1,1v32c0,0.6,0.4,1,1,1h10.6H37h10.6c0.6,0,1-0.4,1-1v-32C48.5,14.9,48.1,14.5,47.5,14.5z M2.5,16.5h8.6v30H2.5V16.5
		z M13.1,15.5V7.2l11.4-4.6l11.4,4.6v8.3v31H13.1V15.5z M46.5,46.5h-8.6v-30h8.6V46.5z"/>
	<path d="M32.5,12.3h-16c-0.6,0-1,0.4-1,1s0.4,1,1,1h16c0.6,0,1-0.4,1-1C33.5,12.8,33.1,12.3,32.5,12.3z"/>
	<path d="M32.5,19.3h-16c-0.6,0-1,0.4-1,1s0.4,1,1,1h16c0.6,0,1-0.4,1-1C33.5,19.8,33.1,19.3,32.5,19.3z"/>
	<path d="M32.5,26.3h-16c-0.6,0-1,0.4-1,1s0.4,1,1,1h16c0.6,0,1-0.4,1-1C33.5,26.7,33.1,26.3,32.5,26.3z"/>
	<path d="M32.5,33.3h-16c-0.6,0-1,0.4-1,1s0.4,1,1,1h16c0.6,0,1-0.4,1-1S33.1,33.3,32.5,33.3z"/>
	<path d="M32.5,40.3h-16c-0.6,0-1,0.4-1,1s0.4,1,1,1h16c0.6,0,1-0.4,1-1S33.1,40.3,32.5,40.3z"/>
	<path d="M42.2,28c0.6,0,1-0.4,1-1v-4.4c0-0.6-0.4-1-1-1s-1,0.4-1,1V27C41.2,27.5,41.7,28,42.2,28z"/>
	<path d="M42.2,41.4c0.6,0,1-0.4,1-1V36c0-0.6-0.4-1-1-1s-1,0.4-1,1v4.4C41.2,41,41.7,41.4,42.2,41.4z"/>
	<path d="M6.8,21.6c-0.6,0-1,0.4-1,1V27c0,0.6,0.4,1,1,1s1-0.4,1-1v-4.4C7.8,22,7.3,21.6,6.8,21.6z"/>
	<path d="M6.8,35c-0.6,0-1,0.4-1,1v4.4c0,0.6,0.4,1,1,1s1-0.4,1-1V36C7.8,35.5,7.3,35,6.8,35z"/>
</g>
</svg>
