<?xml version="1.0" encoding="utf-8"?>
<!-- Generator: Adobe Illustrator 20.1.0, SVG Export Plug-In . SVG Version: 6.00 Build 0)  -->
<!DOCTYPE svg PUBLIC "-//W3C//DTD SVG 1.1//EN" "http://www.w3.org/Graphics/SVG/1.1/DTD/svg11.dtd" [
	<!ENTITY ns_extend "http://ns.adobe.com/Extensibility/1.0/">
	<!ENTITY ns_ai "http://ns.adobe.com/AdobeIllustrator/10.0/">
	<!ENTITY ns_graphs "http://ns.adobe.com/Graphs/1.0/">
	<!ENTITY ns_vars "http://ns.adobe.com/Variables/1.0/">
	<!ENTITY ns_imrep "http://ns.adobe.com/ImageReplacement/1.0/">
	<!ENTITY ns_sfw "http://ns.adobe.com/SaveForWeb/1.0/">
	<!ENTITY ns_custom "http://ns.adobe.com/GenericCustomNamespace/1.0/">
	<!ENTITY ns_adobe_xpath "http://ns.adobe.com/XPath/1.0/">
]>
<svg version="1.1" id="Layer_1" xmlns:x="&ns_extend;" xmlns:i="&ns_ai;" xmlns:graph="&ns_graphs;"
	 xmlns="http://www.w3.org/2000/svg" xmlns:xlink="http://www.w3.org/1999/xlink" x="0px" y="0px" viewBox="0 0 48 48"
	 style="enable-background:new 0 0 48 48;" xml:space="preserve">
<style type="text/css">
	.st0{clip-path:url(#SVGID_2_);}
	.st1{clip-path:url(#SVGID_4_);}
	.st2{clip-path:url(#SVGID_6_);}
	.st3{fill:none;}
</style>
<metadata>
	<sfw  xmlns="&ns_sfw;">
		<slices></slices>
		<sliceSourceBounds  bottomLeftOrigin="true" height="58.5" width="58.5" x="-5.3" y="-53.3"></sliceSourceBounds>
	</sfw>
</metadata>
<g>
	<defs>
		<path id="SVGID_1_" d="M44.7,8.4h-5.1V2.8c0-1-0.8-1.8-1.8-1.8H2.8C1.8,1,1,1.8,1,2.8v35.1c0,1,0.8,1.8,1.8,1.8h5.6v5.1
			c0,1.3,1,2.3,2.3,2.3h34.1c1.3,0,2.3-1,2.3-2.3V10.7C47,9.4,46,8.4,44.7,8.4z M45,10.7v24.5l-3.8-3.8c-0.4-0.4-1.1-0.4-1.5,0
			l-4.2,4.2L21.9,22.2c-0.4-0.4-1.1-0.4-1.5,0l-10,10V10.7c0-0.2,0.1-0.3,0.3-0.3h34.1C44.9,10.4,45,10.5,45,10.7z M3,37.6V3h34.7
			v5.4h-27c-1.3,0-2.3,1-2.3,2.3v27H3z M44.7,45H10.7c-0.2,0-0.3-0.1-0.3-0.3V35l10.8-10.8l13.5,13.4c0.4,0.4,1.1,0.4,1.5,0l4.2-4.2
			l4.6,4.5v6.8C45,44.9,44.9,45,44.7,45z"/>
	</defs>
	<clipPath id="SVGID_2_">
		<use xlink:href="#SVGID_1_"  style="overflow:visible;"/>
	</clipPath>
	<rect x="-5.3" y="-5.3" class="st0" width="58.5" height="58.5"/>
</g>
<g>
	<defs>
		<path id="SVGID_3_" d="M33.6,19.9c-1.9,0-3.5,1.6-3.5,3.5c0,1.9,1.6,3.5,3.5,3.5c1.9,0,3.5-1.6,3.5-3.5
			C37,21.5,35.5,19.9,33.6,19.9 M33.6,25.3c-1,0-1.9-0.9-1.9-1.9c0-1,0.9-1.9,1.9-1.9s1.9,0.9,1.9,1.9
			C35.5,24.5,34.6,25.3,33.6,25.3"/>
	</defs>
	<clipPath id="SVGID_4_">
		<use xlink:href="#SVGID_3_"  style="overflow:visible;"/>
	</clipPath>
	<g class="st1">
		<defs>
			<rect id="SVGID_5_" x="6" y="4" width="37" height="35"/>
		</defs>
		<clipPath id="SVGID_6_">
			<use xlink:href="#SVGID_5_"  style="overflow:visible;"/>
		</clipPath>
		<rect x="25.1" y="14.9" class="st2" width="16.9" height="16.9"/>
	</g>
</g>
<rect x="5" y="6" class="st3" width="38" height="37"/>
</svg>
