<?xml version="1.0" encoding="utf-8"?>
<!-- Generator: Adobe Illustrator 24.0.3, SVG Export Plug-In . SVG Version: 6.00 Build 0)  -->
<!DOCTYPE svg PUBLIC "-//W3C//DTD SVG 1.1//EN" "http://www.w3.org/Graphics/SVG/1.1/DTD/svg11.dtd" [
	<!ENTITY ns_extend "http://ns.adobe.com/Extensibility/1.0/">
	<!ENTITY ns_ai "http://ns.adobe.com/AdobeIllustrator/10.0/">
	<!ENTITY ns_graphs "http://ns.adobe.com/Graphs/1.0/">
	<!ENTITY ns_vars "http://ns.adobe.com/Variables/1.0/">
	<!ENTITY ns_imrep "http://ns.adobe.com/ImageReplacement/1.0/">
	<!ENTITY ns_sfw "http://ns.adobe.com/SaveForWeb/1.0/">
	<!ENTITY ns_custom "http://ns.adobe.com/GenericCustomNamespace/1.0/">
	<!ENTITY ns_adobe_xpath "http://ns.adobe.com/XPath/1.0/">
]>
<svg version="1.1" id="Layer_1" xmlns:x="&ns_extend;" xmlns:i="&ns_ai;" xmlns:graph="&ns_graphs;"
	 xmlns="http://www.w3.org/2000/svg" xmlns:xlink="http://www.w3.org/1999/xlink" x="0px" y="0px" viewBox="0 0 78.8 90"
	 style="enable-background:new 0 0 78.8 90;" xml:space="preserve">
<metadata>
	<sfw  xmlns="&ns_sfw;">
		<slices></slices>
		<sliceSourceBounds  bottomLeftOrigin="true" height="90" width="78.8" x="10.6" y="30"></sliceSourceBounds>
	</sfw>
</metadata>
<title>89</title>
<path d="M72.1,0H6.7C3,0,0,3,0,6.7v76.5C0,87,3,90,6.7,90h65.3c3.7,0,6.7-3,6.7-6.7V6.7C78.8,3,75.8,0,72.1,0z M75.2,83.3
	c0,1.7-1.4,3.1-3.1,3.1H6.7c-1.7,0-3.1-1.4-3.1-3.1V6.7C3.6,5,5,3.6,6.7,3.6h65.3c1.7,0,3.1,1.4,3.1,3.1V83.3z M26.3,14.1H14.2
	c-1,0-1.8,0.8-1.8,1.8c0,0,0,0,0,0v12.1c0,1,0.8,1.8,1.8,1.8c0,0,0,0,0,0h12.1c1,0,1.8-0.8,1.8-1.8c0,0,0,0,0,0V15.9
	C28.1,14.9,27.3,14.1,26.3,14.1C26.3,14.1,26.3,14.1,26.3,14.1L26.3,14.1z M24.5,26.3H16v-8.5h8.5V26.3z M26.3,37.1H14.2
	c-1,0-1.8,0.8-1.8,1.8c0,0,0,0,0,0v12.1c0,1,0.8,1.8,1.8,1.8c0,0,0,0,0,0h12.1c1,0,1.8-0.8,1.8-1.8c0,0,0,0,0,0V38.9
	C28.1,37.9,27.3,37.1,26.3,37.1C26.3,37.1,26.3,37.1,26.3,37.1L26.3,37.1z M24.5,49.3H16v-8.5h8.5V49.3z M26.3,60.1H14.2
	c-1,0-1.8,0.8-1.8,1.8c0,0,0,0,0,0v12.1c0,1,0.8,1.8,1.8,1.8c0,0,0,0,0,0h12.1c1,0,1.8-0.8,1.8-1.8c0,0,0,0,0,0V61.9
	C28.1,60.9,27.3,60.1,26.3,60.1C26.3,60.1,26.3,60.1,26.3,60.1L26.3,60.1z M24.5,72.3H16v-8.5h8.5V72.3z M66.4,26
	c0,1-0.8,1.8-1.8,1.8c0,0,0,0,0,0H35.3c-1,0-1.8-0.8-1.8-1.8c0-1,0.8-1.8,1.8-1.8c0,0,0,0,0,0h29.3C65.6,24.2,66.4,25,66.4,26
	C66.4,26,66.4,26,66.4,26z M33.5,18c0-1,0.8-1.8,1.8-1.8c0,0,0,0,0,0h19.9c1,0,1.8,0.8,1.8,1.8c0,1-0.8,1.8-1.8,1.8c0,0,0,0,0,0
	H35.3C34.3,19.8,33.5,19,33.5,18C33.5,18,33.5,18,33.5,18z M66.4,49c0,1-0.8,1.8-1.8,1.8c0,0,0,0,0,0H35.3c-1,0-1.8-0.8-1.8-1.8
	s0.8-1.8,1.8-1.8h29.3C65.6,47.2,66.4,48,66.4,49C66.4,49,66.4,49,66.4,49z M33.5,41c0-1,0.8-1.8,1.8-1.8c0,0,0,0,0,0h19.9
	c1,0,1.8,0.8,1.8,1.8s-0.8,1.8-1.8,1.8H35.3C34.3,42.8,33.5,42,33.5,41C33.5,41,33.5,41,33.5,41z M66.4,72c0,1-0.8,1.8-1.8,1.8
	c0,0,0,0,0,0H35.3c-1,0-1.8-0.8-1.8-1.8c0-1,0.8-1.8,1.8-1.8h29.3C65.6,70.2,66.4,71,66.4,72C66.4,72,66.4,72,66.4,72z M33.5,64
	c0-1,0.8-1.8,1.8-1.8c0,0,0,0,0,0h19.9c1,0,1.8,0.8,1.8,1.8c0,1-0.8,1.8-1.8,1.8H35.3C34.3,65.8,33.5,65,33.5,64
	C33.5,64,33.5,64,33.5,64z"/>
</svg>
