<?xml version="1.0" encoding="utf-8"?>
<!-- Generator: Adobe Illustrator 24.0.3, SVG Export Plug-In . SVG Version: 6.00 Build 0)  -->
<!DOCTYPE svg PUBLIC "-//W3C//DTD SVG 1.1//EN" "http://www.w3.org/Graphics/SVG/1.1/DTD/svg11.dtd" [
	<!ENTITY ns_extend "http://ns.adobe.com/Extensibility/1.0/">
	<!ENTITY ns_ai "http://ns.adobe.com/AdobeIllustrator/10.0/">
	<!ENTITY ns_graphs "http://ns.adobe.com/Graphs/1.0/">
	<!ENTITY ns_vars "http://ns.adobe.com/Variables/1.0/">
	<!ENTITY ns_imrep "http://ns.adobe.com/ImageReplacement/1.0/">
	<!ENTITY ns_sfw "http://ns.adobe.com/SaveForWeb/1.0/">
	<!ENTITY ns_custom "http://ns.adobe.com/GenericCustomNamespace/1.0/">
	<!ENTITY ns_adobe_xpath "http://ns.adobe.com/XPath/1.0/">
]>
<svg version="1.1" id="Layer_1" xmlns:x="&ns_extend;" xmlns:i="&ns_ai;" xmlns:graph="&ns_graphs;"
	 xmlns="http://www.w3.org/2000/svg" xmlns:xlink="http://www.w3.org/1999/xlink" x="0px" y="0px" viewBox="0 0 36.1 48.6"
	 style="enable-background:new 0 0 36.1 48.6;" xml:space="preserve">
<metadata>
	<sfw  xmlns="&ns_sfw;">
		<slices></slices>
		<sliceSourceBounds  bottomLeftOrigin="true" height="48.1" width="36.1" x="6.4" y="0"></sliceSourceBounds>
	</sfw>
</metadata>
<g>
	<path d="M8.9,30.5c-2.2,0-4.1,1.8-4.1,4.1c0,2.2,1.8,4.1,4.1,4.1s4.1-1.8,4.1-4.1C13,32.3,11.2,30.5,8.9,30.5z M8.9,36.6
		c-1.1,0-2.1-0.9-2.1-2.1s0.9-2.1,2.1-2.1c1.1,0,2.1,0.9,2.1,2.1S10.1,36.6,8.9,36.6z"/>
	<path d="M27.3,30.5c-2.2,0-4.1,1.8-4.1,4.1c0,2.2,1.8,4.1,4.1,4.1c2.2,0,4.1-1.8,4.1-4.1C31.3,32.3,29.5,30.5,27.3,30.5z
		 M27.3,36.6c-1.1,0-2.1-0.9-2.1-2.1s0.9-2.1,2.1-2.1c1.1,0,2.1,0.9,2.1,2.1S28.4,36.6,27.3,36.6z"/>
	<path d="M35.7,46.7l-5-4.2h3.9c0.6,0,1-0.4,1-1V27V11V5c0-4.1-12.2-4.5-17.5-4.5S0.6,0.9,0.6,5v6v16v14.6c0,0.6,0.4,1,1,1h3.8
		l-5,4.2c-0.4,0.4-0.5,1-0.1,1.4c0.2,0.2,0.5,0.4,0.8,0.4c0.2,0,0.5-0.1,0.6-0.2l2.6-2.2h27.6l2.6,2.2c0.2,0.2,0.4,0.2,0.6,0.2
		c0.3,0,0.6-0.1,0.8-0.4C36.2,47.7,36.2,47.1,35.7,46.7z M2.6,12h14.5v14H2.6V12z M19.1,12h14.5v14H19.1V12z M18.1,2.5
		c10,0,15.3,1.6,15.5,2.5v5h-31V5C2.8,4.1,8.1,2.5,18.1,2.5z M2.6,28h31v12.6h-31V28z M6.7,44.1l1.8-1.5h19.2l1.8,1.5H6.7z"/>
	<path d="M21.5,7.6h2.3c0.6,0,1-0.4,1-1s-0.4-1-1-1h-2.3c-0.6,0-1,0.4-1,1S20.9,7.6,21.5,7.6z"/>
	<path d="M12.4,7.6h5.3c0.6,0,1-0.4,1-1s-0.4-1-1-1h-5.3c-0.6,0-1,0.4-1,1S11.8,7.6,12.4,7.6z"/>
</g>
</svg>
